<svg width="30" height="26" viewBox="0 0 30 26" fill="none" xmlns="http://www.w3.org/2000/svg">
<g id="Vector">
<path d="M29.9959 16.7381H0.0674969L0.0674968 15.34L16.0533 15.34L12.6401 9.58748C10.6959 6.3517 9.48614 5.47285 5.85694 4.594L0.0674962 3.19583L0.0674962 1.8376C1.36364 2.11724 2.57337 2.39687 6.33219 3.31567C9.87498 4.19452 11.4304 5.19322 13.3314 8.10941L30 0V1.5793L14.0658 9.26789L17.6518 15.34H29.9959V16.7381Z" fill="#E95232"/>
<path d="M0 26V17.4069H1.1949V21.1511H3.38554L5.88155 17.4069H7.28887L4.50078 21.458L7.48802 26H6.10725L3.57141 22.1331H1.1949V26H0Z" fill="#E95232"/>
<path d="M8.11047 26V25.0179H11.5757L12.1466 23.2993H9.87626L7.71217 17.4069H8.92034L10.726 22.3173H12.4652L14.1779 17.4069H15.3861L12.4121 26H8.11047Z" fill="#E95232"/>
<path d="M16.3235 25.0179V18.389L17.3856 17.4069H22.298V18.4136H17.5184V24.9934H22.4308V26H17.3856L16.3235 25.0179Z" fill="#E95232"/>
<path d="M25.9465 26V18.389H23.092V17.4069H29.9959V18.389H27.1414V26H25.9465Z" fill="#E95232"/>
</g>
</svg>
