<svg xmlns="http://www.w3.org/2000/svg" width="52" height="55" viewBox="0 0 52 55" fill="none">
  <path d="M51.9929 30.9329H1.00181L1.00181 28.3565L28.2379 28.3565L22.4226 17.7565C19.1101 11.794 17.049 10.1746 10.8657 8.55513L1.00181 5.97874L1.00181 3.47596C3.21014 3.99124 5.27126 4.50651 11.6754 6.19957C17.7115 7.81901 20.3615 9.65929 23.6004 15.0329L52 0.0898438V3L24.8518 17.1676L30.9615 28.3565H51.9929V30.9329Z" fill="#E95232"/>
  <path d="M0.886811 47.9996V32.1653H2.92264V39.0645H6.655L10.9076 32.1653H13.3054L8.55512 39.63L13.6447 47.9996H11.2922L6.97169 40.8742H2.92264V47.9996H0.886811Z" fill="#E95232"/>
  <path d="M14.7052 47.9996V46.1899H20.6091L21.5818 43.0231H17.7137L14.0266 32.1653H16.085L19.1614 41.2135H22.1247L25.0427 32.1653H27.1012L22.0342 47.9996H14.7052Z" fill="#E95232"/>
  <path d="M28.6984 46.1899V33.9749L30.508 32.1653H38.8775V34.0202H30.7342V46.1447H39.1037V47.9996H30.508L28.6984 46.1899Z" fill="#E95232"/>
  <path d="M45.0937 47.9996V33.9749H40.2303V32.1653H51.9929V33.9749H47.1296V47.9996H45.0937Z" fill="#E95232"/>
  <path d="M0.816406 53.8439V50.7057H1.12126V52.3152C1.12126 52.62 1.11229 52.889 1.08988 53.2835H1.10333L2.36309 50.7057H2.6814V53.8439H2.37654V52.2345C2.37654 51.9296 2.38551 51.6651 2.40793 51.2661H2.39448L1.13471 53.8439H0.816406Z" fill="#E95232"/>
  <path d="M4.99337 53.8439V52.369H3.80086V53.8439H3.48704V50.7057H3.80086V52.082H4.99337V50.7057H5.3072V53.8439H4.99337Z" fill="#E95232"/>
  <path d="M5.75982 53.8439L6.65197 52.1313C6.37401 51.9565 6.244 51.7772 6.15434 51.4275C6.03329 50.9568 5.99743 50.8312 5.96604 50.7057H6.28435L6.45471 51.3423C6.5354 51.6696 6.63403 51.7861 6.91199 51.9431C7.10476 52.0507 7.25719 52.1313 7.39169 52.2076V50.7057H7.70551V52.2076L8.18969 51.9431C8.46764 51.7861 8.56179 51.6696 8.64697 51.3423C8.75008 50.9388 8.78146 50.8223 8.81285 50.7057H9.13115C9.09977 50.8312 9.06839 50.9568 8.94286 51.4275C8.84871 51.7772 8.72767 51.9565 8.44523 52.1313L9.34186 53.8439H8.98321L8.18072 52.2793L7.70551 52.5393V53.8439H7.39169V52.5348C7.24823 52.4586 7.10925 52.3824 6.92096 52.2793L6.11399 53.8439H5.75982Z" fill="#E95232"/>
  <path d="M9.80023 53.8439V50.7057H11.2707V50.9837H10.114V52.0955H11.181V52.3734H10.114V53.566H11.311V53.8439H9.80023Z" fill="#E95232"/>
  <path d="M13.4343 53.8439V52.369H12.2418V53.8439H11.928V50.7057H12.2418V52.082H13.4343V50.7057H13.7481V53.8439H13.4343Z" fill="#E95232"/>
  <path d="M14.5504 53.8439V50.7057H16.0209V50.9837H14.8643V52.0955H15.9313V52.3734H14.8643V53.566H16.0613V53.8439H14.5504Z" fill="#E95232"/>
  <path d="M16.6782 53.8439V50.7057H17.4762C18.18 50.7057 18.4042 50.9433 18.4042 51.6292C18.4042 52.3286 18.1711 52.5662 17.4941 52.5662H16.992V53.8439H16.6782ZM16.992 52.2793H17.5076C17.9738 52.2793 18.0949 52.1448 18.0949 51.6292C18.0949 51.1226 17.9738 50.9926 17.4941 50.9926H16.992V52.2793Z" fill="#E95232"/>
  <path d="M20.4918 53.8439V52.369H19.2993V53.8439H18.9854V50.7057H19.2993V52.082H20.4918V50.7057H20.8056V53.8439H20.4918Z" fill="#E95232"/>
  <path d="M21.6079 53.8439V50.7057H21.9217V51.9206H22.4059C23.0873 51.9206 23.3205 52.1582 23.3205 52.889C23.3205 53.6063 23.0918 53.8439 22.3925 53.8439H21.6079ZM21.9217 53.557H22.4059C22.8901 53.557 23.0111 53.427 23.0111 52.889C23.0111 52.3421 22.8901 52.2076 22.4238 52.2076H21.9217V53.557ZM23.8764 53.8439V50.7057H24.1902V53.8439H23.8764Z" fill="#E95232"/>
  <path d="M24.9922 53.8439V50.7057H26.4626V50.9837H25.306V52.0955H26.373V52.3734H25.306V53.566H26.503V53.8439H24.9922Z" fill="#E95232"/>
  <path d="M27.7282 53.8574V53.566H27.8089C27.921 53.566 28.0151 53.5391 28.0913 53.4315C28.2527 53.2118 28.302 52.6962 28.3917 50.7057H29.8846V53.8439H29.5708V50.9926H28.6876C28.6024 52.8755 28.5441 53.3732 28.3244 53.6422C28.1899 53.8036 28.0196 53.8574 27.8044 53.8574H27.7282Z" fill="#E95232"/>
  <path d="M30.3562 53.8439L31.2528 50.7057H31.607L32.5126 53.8439H32.1898L31.9701 53.0504H30.8986L30.679 53.8439H30.3562ZM30.9749 52.768H31.8894L31.616 51.7817C31.5487 51.5261 31.4859 51.2885 31.4366 51.0778H31.4277C31.3783 51.2885 31.3156 51.5306 31.2483 51.7817L30.9749 52.768Z" fill="#E95232"/>
  <path d="M34.4885 53.8439V52.369H33.296V53.8439H32.9822V50.7057H33.296V52.082H34.4885V50.7057H34.8023V53.8439H34.4885Z" fill="#E95232"/>
  <path d="M35.2325 54.4402V53.5615H35.4298C35.627 53.3508 35.7212 53.1221 35.7884 52.36C35.8243 51.952 35.8557 51.4185 35.896 50.7057H37.3934V53.5615H37.7027V54.4402H37.4024V53.8439H35.5329V54.4402H35.2325ZM35.775 53.5615H37.0796V50.9926H36.1785C36.1471 51.5754 36.1157 52.0282 36.0843 52.3869C36.0171 53.0907 35.9364 53.3373 35.775 53.5615Z" fill="#E95232"/>
  <path d="M38.2621 53.8439V50.7057H38.5759V53.557H39.5667V50.7057H39.8805V53.557H40.8668V50.7057H41.1807V53.8439H38.2621Z" fill="#E95232"/>
  <path d="M41.6516 53.8439L42.5483 50.7057H42.9024L43.808 53.8439H43.4852L43.2656 53.0504H42.1941L41.9744 53.8439H41.6516ZM42.2703 52.768H43.1849L42.9114 51.7817C42.8442 51.5261 42.7814 51.2885 42.7321 51.0778H42.7231C42.6738 51.2885 42.611 51.5306 42.5438 51.7817L42.2703 52.768Z" fill="#E95232"/>
  <path d="M45.2917 53.956V53.6018H45.0497C44.3368 53.6018 44.0589 53.3283 44.0589 52.6424V51.9117C44.0589 51.2213 44.3368 50.9478 45.0497 50.9478H45.2917V50.5936H45.6011V50.9478H45.8432C46.556 50.9478 46.8339 51.2213 46.8339 51.9117V52.6424C46.8339 53.3283 46.556 53.6018 45.8432 53.6018H45.6011V53.956H45.2917ZM44.3727 52.6424C44.3727 53.1535 44.5341 53.3149 45.0497 53.3149H45.2917V51.2347H45.0497C44.5341 51.2347 44.3727 51.4006 44.3727 51.9117V52.6424ZM45.6011 53.3149H45.8432C46.3587 53.3149 46.5201 53.1535 46.5201 52.6424V51.9117C46.5201 51.4006 46.3587 51.2347 45.8432 51.2347H45.6011V53.3149Z" fill="#E95232"/>
  <path d="M47.861 53.8439V50.9926H47.0541V50.7057H48.9818V50.9926H48.1749V53.8439H47.861Z" fill="#E95232"/>
  <path d="M49.4481 53.8439V50.7057H49.7619V51.9206H50.2461C50.9276 51.9206 51.1607 52.1582 51.1607 52.889C51.1607 53.6063 50.932 53.8439 50.2327 53.8439H49.4481ZM49.7619 53.557H50.2461C50.7303 53.557 50.8513 53.427 50.8513 52.889C50.8513 52.3421 50.7303 52.2076 50.264 52.2076H49.7619V53.557ZM51.7166 53.8439V50.7057H52V53.8439H51.7166Z" fill="#E95232"/>
</svg>